<svg width="16" height="16" viewBox="0 0 16 16" fill="none" xmlns="http://www.w3.org/2000/svg">
<path fill-rule="evenodd" clip-rule="evenodd" d="M2.44955 6.75999H12.0395C12.1595 6.75999 12.2695 6.80999 12.3595 6.89999L13.8795 8.45999C14.1595 8.74999 13.9595 9.23999 13.5595 9.23999H3.96955C3.84955 9.23999 3.73955 9.18999 3.64955 9.09999L2.12955 7.53999C1.84955 7.24999 2.04955 6.75999 2.44955 6.75999ZM2.12955 4.68999L3.64955 3.12999C3.72955 3.03999 3.84955 2.98999 3.96955 2.98999H13.5495C13.9495 2.98999 14.1495 3.47999 13.8695 3.76999L12.3595 5.32999C12.2795 5.41999 12.1595 5.46999 12.0395 5.46999H2.44955C2.04955 5.46999 1.84955 4.97999 2.12955 4.68999ZM13.8695 11.3L12.3495 12.86C12.2595 12.95 12.1495 13 12.0295 13H2.44955C2.04955 13 1.84955 12.51 2.12955 12.22L3.64955 10.66C3.72955 10.57 3.84955 10.52 3.96955 10.52H13.5495C13.9495 10.52 14.1495 11.01 13.8695 11.3Z" fill="url(#paint0_linear_88_28943)"/>
<defs>
<linearGradient id="paint0_linear_88_28943" x1="1.77756" y1="13.3327" x2="13.9679" y2="1.14234" gradientUnits="userSpaceOnUse">
<stop stop-color="#9945FF"/>
<stop offset="0.24" stop-color="#8752F3"/>
<stop offset="0.465" stop-color="#5497D5"/>
<stop offset="0.6" stop-color="#43B4CA"/>
<stop offset="0.735" stop-color="#28E0B9"/>
<stop offset="1" stop-color="#19FB9B"/>
</linearGradient>
</defs>
</svg>